<svg width="113" height="113" viewBox="0 0 113 113" fill="none" xmlns="http://www.w3.org/2000/svg">
<path d="M56.5019 8.6332C58.8342 8.62583 61.122 9.27143 63.1063 10.4969C65.0907 11.7225 66.6925 13.4789 67.7303 15.5676L103.043 86.1926C104.001 88.1068 104.454 90.2343 104.358 92.3728C104.263 94.5113 103.622 96.5899 102.497 98.4111C101.372 100.232 99.7995 101.735 97.9298 102.778C96.0601 103.82 93.9549 104.367 91.8142 104.367H21.1895C19.0492 104.367 16.9445 103.819 15.0753 102.776C13.2061 101.734 11.6345 100.23 10.5098 98.4095C9.38509 96.5884 8.74464 94.5101 8.64927 92.3719C8.55391 90.2337 9.00679 88.1066 9.9649 86.1926L45.2735 15.5676C46.3113 13.4789 47.913 11.7225 49.8974 10.4969C51.8818 9.27143 54.1696 8.62583 56.5019 8.6332ZM56.5019 1.0468e-07C52.5678 -0.000390894 48.7113 1.09456 45.3643 3.16221C42.0174 5.22985 39.3122 8.18852 37.5519 11.7068L2.2395 82.3318C0.623151 85.5622 -0.140448 89.1523 0.0212388 92.7609C0.182926 96.3695 1.26453 99.8768 3.1633 102.95C5.06208 106.023 7.71497 108.559 10.87 110.318C14.025 112.077 17.5773 113 21.1895 113H91.8142C95.4261 113 98.978 112.076 102.132 110.317C105.287 108.558 107.939 106.021 109.838 102.948C111.736 99.8753 112.817 96.3682 112.979 92.7599C113.14 89.1516 112.377 85.5619 110.761 82.3318L75.4519 11.7068C73.6915 8.18852 70.9864 5.22985 67.6394 3.16221C64.2925 1.09456 60.436 -0.000390894 56.5019 1.0468e-07Z" fill="#DBFE52"/>
</svg>
