<svg width="111" height="110" viewBox="0 0 111 110" fill="none" xmlns="http://www.w3.org/2000/svg">
  <path
    d="M99.1728 0C95.0619 0 91.2449 2.11225 89.0916 5.58461L65.8898 39.7222C65.1338 40.8475 65.4405 42.3641 66.576 43.1133C67.4961 43.7211 68.7135 43.6459 69.5518 42.9314L92.3899 23.3006C92.7694 22.9621 93.3542 22.9966 93.6958 23.3727C93.8508 23.545 93.9331 23.7675 93.9331 23.9963V85.4586C93.9331 85.9661 93.5187 86.3735 93.0063 86.3735C92.7311 86.3735 92.4722 86.2545 92.2981 86.0446L23.2619 4.1493C21.0135 1.51995 17.7121 0.00313648 14.2367 0H11.8239C5.29368 0 0 5.24616 0 11.7177V98.2822C0 104.754 5.29368 110 11.8239 110C15.9348 110 19.7517 107.888 21.9053 104.415L45.1073 70.2779C45.8629 69.1526 45.5561 67.636 44.4207 66.8868C43.5005 66.279 42.2832 66.3542 41.4453 67.0687L18.607 86.6996C18.2275 87.038 17.6425 87.0033 17.301 86.6272C17.146 86.4549 17.0638 86.2326 17.0669 86.0037V24.526C17.0669 24.0183 17.4812 23.6108 17.9935 23.6108C18.2655 23.6108 18.5279 23.7299 18.7019 23.9399L87.7288 105.851C89.9769 108.48 93.2785 109.997 96.7539 110H99.1666C105.697 110.003 110.994 104.76 111 98.2888V11.7177C111 5.24616 105.703 0 99.1728 0Z"
    fill="#DBFE52" />
</svg>