<svg width="111" height="111" viewBox="0 0 111 111" fill="none" xmlns="http://www.w3.org/2000/svg">
<path d="M55.0888 110.312C85.619 110.312 110.178 85.7232 110.178 55.1559C110.178 24.5885 85.619 0 55.0888 0C24.5586 0 0 24.5885 0 55.1559C0 85.7232 24.5586 110.312 55.0888 110.312Z" fill="#DBFE52"/>
<path d="M70.2383 63.8874C70.2383 55.8457 65.4181 53.0879 55.7775 51.9352C48.8914 51.0141 47.5142 49.1774 47.5142 45.9618C47.5142 42.7462 49.8114 40.6779 54.4003 40.6779C58.532 40.6779 60.8292 42.0568 61.975 45.504C62.2064 46.1934 62.895 46.6512 63.5836 46.6512H67.258C68.178 46.6512 68.8666 45.9618 68.8666 45.0407V44.809C67.9467 39.7512 63.815 35.8462 58.5375 35.3884V29.8728C58.5375 28.9517 57.8489 28.2623 56.703 28.0361H53.26C52.34 28.0361 51.6514 28.7256 51.4255 29.8728V35.1568C44.5394 36.0779 40.1764 40.6723 40.1764 46.4196C40.1764 54.0035 44.7653 56.993 54.4058 58.1402C60.8347 59.2874 62.9005 60.6663 62.9005 64.3452C62.9005 68.0241 59.6889 70.5503 55.3258 70.5503C49.3597 70.5503 47.2939 68.0241 46.6053 64.5769C46.3739 63.6558 45.6853 63.198 44.9967 63.198H41.0964C40.1764 63.198 39.4878 63.8874 39.4878 64.8085V65.0402C40.4078 70.7874 44.0767 74.9241 51.6514 76.0714V81.587C51.6514 82.5081 52.34 83.1975 53.4859 83.4237H56.9289C57.8489 83.4237 58.5375 82.7342 58.7634 81.587V76.0714C65.6439 74.9186 70.2383 70.0925 70.2383 63.8874Z" fill="white"/>
<path d="M43.3825 88.0176C25.4786 81.5809 16.2953 61.5869 22.9556 43.8929C26.3986 34.2407 33.9733 26.8884 43.3825 23.4411C44.3025 22.9833 44.7597 22.2939 44.7597 21.1411V17.9256C44.7597 17.0045 44.3025 16.315 43.3825 16.0889C43.1511 16.0889 42.6939 16.0889 42.4625 16.3205C20.6584 23.215 8.72063 46.4246 15.6067 68.2608C19.7384 81.1287 29.6103 91.0126 42.4625 95.1493C43.3825 95.6071 44.297 95.1493 44.5283 94.2282C44.7597 93.9965 44.7597 93.7704 44.7597 93.3071V90.0915C44.7597 89.3965 44.0711 88.4809 43.3825 88.0176ZM67.7097 16.315C66.7897 15.8572 65.8752 16.315 65.6439 17.2361C65.4125 17.4678 65.4125 17.6939 65.4125 18.1572V21.3728C65.4125 22.2939 66.1011 23.2095 66.7897 23.6728C84.6936 30.1095 93.8769 50.1035 87.2166 67.7975C83.7736 77.4498 76.1989 84.802 66.7897 88.2493C65.8697 88.7071 65.4125 89.3965 65.4125 90.5493V93.7649C65.4125 94.686 65.8697 95.3754 66.7897 95.6016C67.0211 95.6016 67.4783 95.6016 67.7097 95.3699C89.5138 88.4754 101.452 65.2658 94.5655 43.4296C90.4338 30.3356 80.336 20.4517 67.7097 16.315Z" fill="white"/>
</svg>
