<svg width="256" height="257" viewBox="0 0 256 257" fill="none" xmlns="http://www.w3.org/2000/svg">
<path d="M128 256.312C198.938 256.312 256 199.18 256 128.156C256 57.1319 198.938 0 128 0C57.0624 0 0 57.1319 0 128.156C0 199.18 57.0624 256.312 128 256.312Z" fill="#DBFE52"/>
<path d="M129.534 121.168L129.534 121.168L129.541 121.169C140.726 122.506 149.01 124.767 154.497 128.953C159.942 133.108 162.7 139.214 162.7 148.444C162.7 162.571 152.25 173.614 136.455 176.26L136.038 176.33V176.754V189.52C135.533 192.008 134.083 193.337 132.275 193.337H124.325C121.841 192.832 120.513 191.381 120.513 189.569V176.754V176.324L120.088 176.259C111.364 174.938 104.936 171.903 100.429 167.585C95.9327 163.277 93.3096 157.656 92.2505 151.082V150.584C92.2505 148.719 93.6273 147.342 95.4881 147.342H104.551C105.908 147.342 107.313 148.236 107.8 150.156C108.615 154.226 110.257 157.817 113.511 160.382C116.764 162.945 121.555 164.425 128.551 164.425C138.86 164.425 146.651 158.425 146.651 149.508C146.651 147.326 146.345 145.448 145.624 143.821C144.901 142.188 143.774 140.835 142.175 139.687C139.006 137.411 133.968 135.93 126.501 134.598L126.486 134.595L126.472 134.594C115.294 133.263 107.143 130.873 101.79 126.688C96.4737 122.533 93.8505 116.554 93.8505 107.857C93.8505 94.8038 103.75 84.2972 119.554 82.1831L119.988 82.1251V81.6875V69.4596C120.493 66.9711 121.942 65.6426 123.751 65.6426H131.701C134.185 66.1477 135.513 67.5987 135.513 69.4102V82.2258V82.6843L135.97 82.7239C147.987 83.7663 157.399 92.6466 159.513 104.16V104.653C159.513 106.518 158.136 107.895 156.275 107.895H147.738C146.341 107.895 144.94 106.958 144.474 105.57C143.116 101.486 141.057 98.5744 138.068 96.6957C135.09 94.8238 131.249 94.0159 126.4 94.0159C121.002 94.0159 116.876 95.2314 114.089 97.4624C111.287 99.706 109.9 102.928 109.9 106.793C109.9 110.607 110.721 113.719 113.685 116.121C116.6 118.482 121.52 120.096 129.534 121.168Z" fill="#1F1F1F" stroke="#1F1F1F"/>
<path d="M100.8 204.511C59.2 189.555 37.8624 143.099 53.3376 101.986C61.3376 79.5589 78.9376 62.4757 100.8 54.466C102.938 53.4023 104 51.8003 104 49.1219V41.6504C104 39.5102 102.938 37.9083 100.8 37.3828C100.262 37.3828 99.2 37.3828 98.6624 37.9211C48 53.9405 20.2624 107.869 36.2624 158.605C45.8624 188.504 68.8 211.47 98.6624 221.081C100.8 222.145 102.925 221.081 103.462 218.941C104 218.403 104 217.878 104 216.801V209.33C104 207.715 102.4 205.587 100.8 204.511ZM157.325 37.9083C155.187 36.8446 153.062 37.9083 152.525 40.0485C151.987 40.5867 151.987 41.1121 151.987 42.1887V49.6601C151.987 51.8003 153.587 53.9277 155.187 55.0042C196.787 69.96 218.125 116.417 202.65 157.529C194.65 179.956 177.05 197.039 155.187 205.049C153.05 206.113 151.987 207.715 151.987 210.393V217.865C151.987 220.005 153.05 221.607 155.187 222.132C155.725 222.132 156.787 222.132 157.325 221.594C207.987 205.575 235.725 151.647 219.725 100.91C210.125 70.4855 186.662 47.5199 157.325 37.9083Z" fill="#1F1F1F"/>
</svg>
