<svg width="112" height="112" viewBox="0 0 112 112" fill="none" xmlns="http://www.w3.org/2000/svg">
<path d="M56 112C86.9279 112 112 86.9279 112 56C112 25.0721 86.9279 0 56 0C25.0721 0 0 25.0721 0 56C0 86.9279 25.0721 112 56 112Z" fill="#DBFE52"/>
<path d="M61.9691 61.168V61.159C61.582 61.186 59.5833 61.3031 55.1357 61.3031C51.5794 61.3031 49.0855 61.204 48.2032 61.159V61.168C34.5273 60.5648 24.3267 58.188 24.3267 55.3339C24.3267 52.4889 34.5363 50.1031 48.2032 49.4999V58.8002C49.0945 58.8632 51.6604 59.0163 55.1987 59.0163C59.4482 59.0163 61.573 58.8362 61.9691 58.8002V49.5089C75.618 50.1211 85.7916 52.4979 85.7916 55.3429C85.7916 58.188 75.609 60.5648 61.9691 61.177M61.9691 48.5455V40.2265H81.0109V27.541H29.1704V40.2265H48.2122V48.5455C32.7357 49.2568 21.1035 52.3179 21.1035 55.9912C21.1035 59.6645 32.7447 62.7256 48.2122 63.4458V90.1134H61.9781V63.4458C77.4276 62.7346 89.0418 59.6735 89.0418 56.0002C89.0418 52.3359 77.4276 49.2658 61.9781 48.5545" fill="white"/>
</svg>
