<svg width="125" height="126" viewBox="0 0 125 126" fill="none" xmlns="http://www.w3.org/2000/svg">
<path d="M62.6648 125.093C97.017 125.093 124.865 97.2451 124.865 62.893C124.865 28.5409 97.017 0.692993 62.6648 0.692993C28.3127 0.692993 0.464844 28.5409 0.464844 62.893C0.464844 97.2451 28.3127 125.093 62.6648 125.093Z" fill="#DBFE52"/>
<path d="M70.4388 69.0212V69.0097C69.9446 69.0442 67.393 69.1936 61.7152 69.1936C57.1752 69.1936 53.9915 69.0672 52.8652 69.0097V69.0212C35.4064 68.2512 22.3842 65.2169 22.3842 61.5734C22.3842 57.9414 35.4179 54.8956 52.8652 54.1256V65.9984C54.003 66.0789 57.2787 66.2743 61.7957 66.2743C67.2206 66.2743 69.9331 66.0444 70.4388 65.9984V54.1371C87.8631 54.9186 100.851 57.9529 100.851 61.5849C100.851 65.2169 87.8516 68.2512 70.4388 69.0327M70.4388 52.9073V42.2872H94.7477V26.0928H28.5678V42.2872H52.8766V52.9073C33.1192 53.8152 18.2695 57.7231 18.2695 62.4124C18.2695 67.1018 33.1307 71.0096 52.8766 71.9291V105.973H70.4503V71.9291C90.1733 71.0211 105 67.1133 105 62.4239C105 57.746 90.1733 53.8267 70.4503 52.9188" fill="#1F1F1F"/>
</svg>
