<svg width="114" height="114" viewBox="0 0 114 114" fill="none" xmlns="http://www.w3.org/2000/svg">
<path fill-rule="evenodd" clip-rule="evenodd" d="M66.7015 49.1077C66.7015 55.4149 56.8636 54.6498 53.7428 54.6498V43.5384C56.8691 43.5384 66.7015 42.5491 66.7015 49.1077ZM69.2703 66.3569C69.2703 73.249 57.4867 72.4619 53.7319 72.4619V60.2574C57.4867 60.2574 69.2703 59.1643 69.2703 66.3843M77.0314 46.6482C76.4029 40.0349 70.7406 37.8487 63.5753 37.1601V28.0928H58.0715V36.9797C56.6122 36.9797 55.1256 36.9797 53.6444 37.0344V28.0928H48.1133V37.2147H36.8926V43.1503C36.8926 43.1503 40.9808 43.0792 40.9207 43.1503C41.6585 43.0691 42.3989 43.278 42.9855 43.7329C43.572 44.1879 43.9585 44.8531 44.0633 45.5879V70.5709C44.048 70.828 43.9821 71.0795 43.8693 71.3111C43.7566 71.5427 43.5992 71.7497 43.4062 71.9204C43.2133 72.091 42.9885 72.2218 42.7449 72.3054C42.5012 72.3889 42.2435 72.4236 41.9864 72.4073C42.0575 72.4729 37.9583 72.4073 37.9583 72.4073L36.8652 79.037H48.0422V88.3284H53.5788V79.1736H58.0004V88.2682H63.537V79.1025C72.8885 78.556 79.387 76.2222 80.2287 67.45C80.8901 60.3831 77.5779 57.235 72.2819 55.9724C75.501 54.3328 77.5233 51.4415 77.0423 46.6318" fill="#DBFE52"/>
<path d="M26.9559 23.6658C32.5678 18.5891 39.3806 15.0259 46.7515 13.3123C54.1224 11.5987 61.8083 11.7911 69.0842 13.8715L69.7182 14.0519C70.0352 14.1448 70.3467 14.2432 70.6582 14.347C71.1064 14.4891 71.5546 14.6422 71.9918 14.8007L72.4291 14.9592C73.0248 15.1778 73.6205 15.4128 74.2054 15.6588L74.2764 15.6916C78.9384 17.6959 83.2705 20.3935 87.1259 23.6931L89.5635 21.0587C89.2356 20.7308 88.8967 20.4302 88.5633 20.1186C80.1237 12.8076 69.4132 8.64391 58.2515 8.33496C57.6557 8.33496 57.06 8.33496 56.4643 8.33496H56.3385C52.7183 8.3851 49.114 8.82488 45.5879 9.64669L44.8664 9.82159L44.2652 9.98008C40.7516 10.9221 37.356 12.2588 34.143 13.9645C30.6249 15.8533 27.422 18.278 24.6494 21.1516L26.9559 23.6658Z" fill="#DBFE52"/>
<path d="M23.8677 26.7324L21.1896 24.3877C3.02219 43.4296 5.6675 74.4137 21.1896 89.1815L23.9224 87.0445C16.367 78.8219 12.1702 68.0647 12.1611 56.898C12.152 45.7313 16.3312 34.9673 23.8732 26.7324H23.8677Z" fill="#DBFE52"/>
<path d="M93.9524 25.5739C93.5316 25.1366 93.1053 24.7048 92.6626 24.2949L90.3179 26.8637C104.091 42.5115 106.999 67.3524 90.7496 86.4762L93.0342 89.2363C100.841 80.5216 105.235 69.2794 105.408 57.5809C105.58 45.8823 101.52 34.5153 93.9743 25.5739H93.9524Z" fill="#DBFE52"/>
<path d="M87.3009 90.1318C85.7159 91.3179 84.1419 92.4055 82.5623 93.4112C76.8303 97.4623 70.2209 100.099 63.2745 101.107C59.7204 101.673 56.106 101.758 52.5293 101.358C43.5205 100.484 34.9922 96.8846 28.082 91.0391C27.7212 90.7768 27.366 90.5199 26.9888 90.2466L24.4692 92.5039C33.2851 101.21 45.3694 105.397 57.2624 105.392C57.5248 105.392 57.809 105.392 58.0494 105.392H58.1752C69.2379 105.103 79.8666 101.026 88.2847 93.8429C88.6673 93.4822 89.0554 93.1269 89.4216 92.7498L87.3009 90.1318Z" fill="#DBFE52"/>
<path d="M56.9781 3.82587C67.4969 3.82155 77.7805 6.93703 86.5283 12.7782C95.2761 18.6194 102.095 26.9238 106.122 36.641C110.15 46.3582 111.205 57.0516 109.153 67.3684C107.102 77.6852 102.038 87.1619 94.5998 94.5998C87.1619 102.038 77.6852 107.102 67.3684 109.153C57.0516 111.204 46.3582 110.15 36.6411 106.122C26.9239 102.095 18.6194 95.2761 12.7782 86.5283C6.93705 77.7805 3.82157 67.4968 3.82589 56.9781C3.84757 42.8879 9.45449 29.381 19.4178 19.4178C29.3811 9.45447 42.888 3.84756 56.9781 3.82587ZM56.9781 4.19455e-06C45.7046 0.00432894 34.6855 3.35155 25.3143 9.61838C15.9431 15.8852 8.64073 24.7902 4.33053 35.2072C0.0203291 45.6243 -1.10406 57.0855 1.09953 68.1416C3.30313 79.1977 8.73575 89.352 16.7104 97.3205C24.685 105.289 34.8436 110.714 45.9013 112.909C56.9591 115.104 68.4194 113.971 78.8332 109.653C89.2469 105.335 98.1463 98.0253 104.406 88.6493C110.666 79.2733 114.004 68.2517 114 56.9781C113.997 49.4928 112.52 42.0813 109.653 35.1668C106.786 28.2524 102.585 21.9704 97.2896 16.6795C91.9947 11.3885 85.7094 7.19237 78.7928 4.3305C71.8761 1.46864 64.4635 -0.00286733 56.9781 4.19455e-06Z" fill="#DBFE52"/>
</svg>
