<svg width="161" height="41" viewBox="0 0 161 41" fill="none" xmlns="http://www.w3.org/2000/svg">
  <mask id="mask0_157_47" style="mask-type:luminance" maskUnits="userSpaceOnUse" x="0" y="0"
    width="161" height="41">
    <path d="M161 0.732178H0V40.2679H161V0.732178Z" fill="white" />
  </mask>
  <g mask="url(#mask0_157_47)">
    <path
      d="M66.6263 6.53247C63.6629 6.53247 61.508 7.23096 59.6773 8.84226L56.4443 11.6351C56.1748 11.8506 55.6359 12.0116 55.2594 11.6884C54.8818 11.3664 54.8284 10.9366 55.1514 10.5069L56.8753 7.92834C57.1447 7.55189 56.9299 7.06882 56.4443 7.06882H52.296C51.8116 7.06882 51.4341 7.44528 51.4341 7.92834V33.0697C51.4341 33.5527 51.8116 33.9292 52.296 33.9292H56.6058C57.0903 33.9292 57.4678 33.5527 57.4678 33.0697V18.8876C57.4678 12.388 62.909 11.3675 64.9559 11.3675C69.3191 11.3675 70.8816 14.4835 70.8816 16.8465V33.0697C70.8816 33.5527 71.259 33.9292 71.7435 33.9292H76.0532C76.5376 33.9292 76.9153 33.5527 76.9153 33.0697V16.3092C76.9153 10.2926 72.9831 6.53247 66.6263 6.53247Z"
      fill="#DBFE52" />
    <path
      d="M94.4762 6.42468C86.1262 6.42468 80.793 11.5284 80.793 18.4578V22.2724C80.793 29.5782 86.1262 34.5743 94.4762 34.5743C101.856 34.5743 107.028 30.7598 107.567 25.6028C107.622 25.0652 107.244 24.6899 106.705 24.6899H102.503C102.126 24.6899 101.803 24.9053 101.695 25.2806C101.156 26.9997 98.6244 29.5782 94.4762 29.5782C90.3278 29.5782 86.449 26.5699 86.5026 22.2724L86.5571 17.4918C86.6106 13.8927 90.3824 11.4219 94.4762 11.4219C98.1936 11.4219 101.803 13.5173 102.179 16.9554C102.21 17.353 101.936 17.7116 101.543 17.7871L89.4649 20.1247C88.9804 20.2324 88.6029 20.6621 88.6029 21.1985V21.2518C88.6029 21.7349 89.0873 22.1646 89.7877 22.1646H107.135C107.611 22.1646 107.997 21.7794 107.997 21.3051V17.9216C107.997 11.5296 102.448 6.4258 94.475 6.4258L94.4762 6.42468Z"
      fill="#DBFE52" />
    <path
      d="M124.535 6.4247C117.801 6.4247 111.984 10.3458 111.984 15.5029C111.984 15.9326 112.361 16.2546 112.846 16.2546H117.209C117.64 16.2546 117.963 15.9326 118.017 15.5029C118.448 13.1398 121.304 11.4208 124.374 11.4208C128.037 11.4208 130.516 13.6772 130.516 17.5451V22.2191C130.516 26.9997 126.96 29.4172 122.542 29.4172C119.094 29.4172 117.101 28.1279 117.101 26.0324C117.101 24.2057 118.071 22.6477 122.057 21.7349L127.821 20.1769C128.413 20.0158 128.629 19.5317 128.521 18.9953C128.468 18.5656 127.983 18.3502 127.551 18.3502H121.572C116.508 18.3502 111.39 21.5728 111.39 26.3001V27.0518C111.39 31.8869 115.969 34.411 121.195 34.411C124.534 34.411 127.39 33.1217 129.167 31.6182L131.808 29.3618C132.238 28.9853 132.67 28.9853 133.046 29.3618C133.369 29.6837 133.261 30.1678 132.991 30.5433L131.375 33.0684C131.106 33.4449 131.321 33.928 131.806 33.928H135.685C136.17 33.928 136.547 33.5515 136.547 33.0684V16.791C136.547 10.5601 132.076 6.42358 124.533 6.42358L124.535 6.4247Z"
      fill="#DBFE52" />
    <path
      d="M159.82 7.06995H153.786C151.686 7.06995 149.638 8.35921 148.183 9.59518L145.814 11.6362C145.544 11.8517 145.059 12.0127 144.736 11.744C144.358 11.4752 144.197 10.9378 144.521 10.508L146.245 7.92945C146.515 7.553 146.299 7.06995 145.814 7.06995H141.774C141.289 7.06995 140.912 7.4464 140.912 7.92945V33.0707C140.912 33.5538 141.289 33.9302 141.774 33.9302H146.191C146.676 33.9302 147.053 33.5538 147.053 33.0707V20.1781C147.053 14.6446 149.316 12.1737 154.219 12.1737H159.82C160.305 12.1737 160.683 11.7973 160.683 11.3142V7.92945C160.683 7.4464 160.305 7.06995 159.82 7.06995Z"
      fill="#DBFE52" />
    <path
      d="M35.2431 1.01111C33.7954 1.01111 32.4512 1.75957 31.6929 2.98998L23.5221 15.0864C23.2559 15.4852 23.3639 16.0226 23.7638 16.288C24.0878 16.5034 24.5165 16.4768 24.8117 16.2236L32.8544 9.26753C32.988 9.14761 33.194 9.15982 33.3143 9.29307C33.3689 9.35415 33.3978 9.433 33.3978 9.51406V31.2929C33.3978 31.4727 33.2519 31.6171 33.0715 31.6171C32.9746 31.6171 32.8834 31.5749 32.8221 31.5005L8.51026 2.48139C7.71848 1.54969 6.55584 1.01222 5.33195 1.01111H4.48225C2.18258 1.01111 0.318359 2.87006 0.318359 5.1632V35.8368C0.318359 38.1301 2.18258 39.989 4.48225 39.989C5.92997 39.989 7.27413 39.2406 8.03252 38.0101L16.2033 25.9137C16.4694 25.5149 16.3614 24.9775 15.9615 24.7121C15.6375 24.4967 15.2088 24.5233 14.9137 24.7765L6.87099 31.7326C6.73736 31.8525 6.53134 31.8402 6.41107 31.707C6.35649 31.6459 6.32754 31.5671 6.32865 31.486V9.70174C6.32865 9.52184 6.47453 9.37747 6.65494 9.37747C6.75072 9.37747 6.84315 9.41967 6.9044 9.49407L31.2129 38.5187C32.0046 39.4504 33.1673 39.9879 34.3912 39.989H35.2409C37.5405 39.9901 39.4059 38.1322 39.4081 35.8392V5.1632C39.4081 2.87006 37.5427 1.01111 35.2431 1.01111Z"
      fill="#DBFE52" />
  </g>
</svg>